<svg width="72.00000000000001" height="72.00000000000001" xmlns="http://www.w3.org/2000/svg">
 <g>
  <title>Layer 1</title>
  <g id="color">
   <path id="svg_1" d="m36,39.44c-4.335,4.335 -8.841,9.096 -15.73,9.096c-7.141,0 -12.24,-5.271 -12.24,-12.58c0.05558,-7.058 5.863,-12.67 12.92,-12.54c6.29,0 10.97,4.973 15.05,9.054c4.335,-4.336 8.841,-9.054 15.73,-9.054c7.226,0 12.24,5.229 12.24,12.54c-0.05592,7.058 -5.863,12.75 -12.92,12.62c-6.29,0 -10.97,-5.057 -15.05,-9.137l0,0.001zm-3.4,-3.444c-3.315,-3.06 -6.801,-7.522 -11.73,-7.522c-4.129,0.0055 -7.475,3.351 -7.48,7.48c-0.2047,4.113 3.108,7.584 7.226,7.522c4.844,0.0005 8.754,-4.166 11.98,-7.48l0.004,0zm26.01,-0.0417c0.205,-4.113 -3.108,-7.543 -7.226,-7.48c-4.846,0 -8.756,4.165 -11.99,7.48c3.315,3.06 6.8,7.522 11.73,7.522c4.129,-0.0057 7.476,-3.393 7.482,-7.522l0.004,0z" stroke-width="2" stroke="#ff69b4" fill="#ff69b4"/>
  </g>
  <g id="line" stroke="null">
   <path id="svg_2" d="m36,32.51c4.335,-4.336 8.841,-9.096 15.73,-9.096c7.226,0 12.24,5.271 12.24,12.58c-0.05592,7.058 -5.863,12.71 -12.92,12.58c-5.006,0 -8.99,-3.178 -12.47,-6.532m-2.581,-2.564c-4.335,4.335 -8.841,9.096 -15.73,9.096c-7.141,0 -12.24,-5.271 -12.24,-12.58c0.05558,-7.058 5.863,-12.71 12.92,-12.58c5.02,0 9.012,3.194 12.49,6.558m-3.476,3.475c-2.586,-2.503 -5.447,-4.932 -9.102,-4.932c-4.129,0.0055 -7.474,3.351 -7.48,7.48c-0.2047,4.113 3.108,7.542 7.226,7.48c4.844,0.0005 8.754,-4.166 11.98,-7.48m9.401,2.521c2.594,2.513 5.462,4.959 9.129,4.959c4.129,-0.0052 7.476,-3.351 7.482,-7.48l0.0004,0c0.2047,-4.113 -3.108,-7.542 -7.226,-7.48c-4.846,0 -8.756,4.165 -11.99,7.48" stroke-width="2" stroke-linecap="round" fill="#ff69b4" stroke="#ff0000"/>
   <line fill="#ff69b4" id="svg_3" stroke-width="2" stroke-linejoin="round" stroke-linecap="round" y2="32.51" y1="36" x2="36" x1="32.6" stroke="#ff0000"/>
   <line fill="#ff69b4" id="svg_4" stroke-width="2" stroke-linejoin="round" stroke-linecap="round" y2="36" y1="39.49" x2="39.4" x1="36" stroke="#ff0000"/>
  </g>
 </g>

</svg>